<svg width="500" height="500" viewBox="0 0 500 500" fill="none" xmlns="http://www.w3.org/2000/svg">
<g clip-path="url(#clip0_1550_1309)">
<path d="M276.19 131.46L99.015 439.965C83.7112 466.612 43 455.753 43 425.024V116.52C43 99.951 56.4315 86.5195 73 86.5195H250.175C273.239 86.5195 287.676 111.46 276.19 131.46Z" fill="url(#paint0_linear_1550_1309)"/>
<path d="M223.81 368.54L400.985 60.0355C416.289 33.3879 457 44.2465 457 74.976L457 383.48C457 400.049 443.569 413.48 427 413.48L249.825 413.48C226.761 413.48 212.324 388.54 223.81 368.54Z" fill="url(#paint1_linear_1550_1309)"/>
</g>
<defs>
<linearGradient id="paint0_linear_1550_1309" x1="172.5" y1="86.5195" x2="172.5" y2="537.5" gradientUnits="userSpaceOnUse">
<stop stop-color="#D9D9D9"/>
</linearGradient>
<linearGradient id="paint1_linear_1550_1309" x1="327.5" y1="413.48" x2="327.5" y2="-37.4999" gradientUnits="userSpaceOnUse">
<stop stop-color="#D9D9D9"/>
</linearGradient>
<clipPath id="clip0_1550_1309">
<rect width="500" height="500" fill="white"/>
</clipPath>
</defs>
</svg>
